<?xml version="1.0" standalone="no"?>
<!DOCTYPE svg PUBLIC "-//W3C//DTD SVG 20010904//EN"
 "http://www.w3.org/TR/2001/REC-SVG-20010904/DTD/svg10.dtd">
<svg version="1.0" xmlns="http://www.w3.org/2000/svg"
 width="32.000000pt" height="32.000000pt" viewBox="0 0 32.000000 32.000000"
 preserveAspectRatio="xMidYMid meet">

<g transform="translate(0.000000,32.000000) scale(0.100000,-0.100000)"
fill="#000000" stroke="none">
<path d="M120 280 c-26 -26 -26 -80 1 -114 26 -33 52 -33 78 0 40 51 16 134
-39 134 -11 0 -29 -9 -40 -20z"/>
<path d="M82 162 c-18 -6 -40 -51 -44 -92 l-3 -35 119 -3 c66 -1 123 1 127 5
13 13 -7 83 -31 108 l-21 23 -24 -24 c-31 -31 -68 -31 -92 -1 -10 13 -24 22
-31 19z"/>
</g>
</svg>
